<svg width="49" height="48" viewBox="0 0 49 48" fill="none" xmlns="http://www.w3.org/2000/svg">
<rect x="0.499512" width="48" height="48" rx="24" fill="white"/>
<path d="M26.1058 36H22.2549C21.6117 36 21.0885 35.4778 21.0885 34.8358V26.1669H18.8418C18.1985 26.1669 17.6753 25.6445 17.6753 25.0027V21.288C17.6753 20.6461 18.1985 20.1238 18.8418 20.1238H21.0885V18.2637C21.0885 16.4193 21.6687 14.85 22.7664 13.726C23.869 12.5967 25.4099 12 27.2226 12L30.1595 12.0048C30.8016 12.0059 31.3239 12.5281 31.3239 13.1689V16.6179C31.3239 17.2599 30.8008 17.7821 30.1578 17.7821L28.1804 17.7828C27.5774 17.7828 27.4238 17.9035 27.391 17.9405C27.3369 18.0018 27.2725 18.1752 27.2725 18.6541V20.1237H30.0092C30.2152 20.1237 30.4148 20.1744 30.5864 20.27C30.9564 20.4763 31.1865 20.8665 31.1865 21.2882L31.185 25.0029C31.185 25.6445 30.6618 26.1667 30.0186 26.1667H27.2725V34.8358C27.2725 35.4778 26.749 36 26.1058 36ZM22.4982 34.593H25.8625V25.537C25.8625 25.1083 26.212 24.7597 26.6414 24.7597H29.7753L29.7766 21.5308H26.6412C26.2119 21.5308 25.8625 21.1822 25.8625 20.7535V18.6541C25.8625 18.1044 25.9185 17.4792 26.3342 17.0094C26.8366 16.4414 27.6282 16.3759 28.1801 16.3759L29.9142 16.3751V13.4114L27.2215 13.407C24.3084 13.407 22.4982 15.2681 22.4982 18.2637V20.7535C22.4982 21.182 22.1489 21.5308 21.7196 21.5308H19.085V24.7597H21.7196C22.1489 24.7597 22.4982 25.1083 22.4982 25.537V34.593Z" fill="#1B355D"/>
</svg>
