<svg width="49" height="48" viewBox="0 0 49 48" fill="none" xmlns="http://www.w3.org/2000/svg">
<rect x="0.500488" width="48" height="48" rx="24" fill="white"/>
<path d="M20.0009 31.8281H16.7196V21.2344H20.0009V31.8281ZM20.3282 17.8592C20.3282 16.7985 19.4677 15.9375 18.4075 15.9375C17.3433 15.9375 16.4849 16.7985 16.4849 17.8592C16.4849 18.9203 17.3433 19.7812 18.4075 19.7812C19.4677 19.7812 20.3282 18.9203 20.3282 17.8592ZM32.2817 25.9999C32.2817 23.1561 31.681 21.0469 28.3589 21.0469C26.7626 21.0469 25.691 21.8452 25.2536 22.6754H25.2505V21.2344H22.063V31.8281H25.2505V26.5682C25.2505 25.1907 25.6011 23.8563 27.3086 23.8563C28.9928 23.8563 29.0474 25.4315 29.0474 26.6558V31.8281H32.2817V25.9999ZM36.5005 33.1875V14.8125C36.5005 13.2616 35.2389 12 33.688 12H15.313C13.7621 12 12.5005 13.2616 12.5005 14.8125V33.1875C12.5005 34.7384 13.7621 36 15.313 36H33.688C35.2389 36 36.5005 34.7384 36.5005 33.1875ZM33.688 13.875C34.2049 13.875 34.6255 14.2956 34.6255 14.8125V33.1875C34.6255 33.7044 34.2049 34.125 33.688 34.125H15.313C14.7961 34.125 14.3755 33.7044 14.3755 33.1875V14.8125C14.3755 14.2956 14.7961 13.875 15.313 13.875H33.688Z" fill="#1B355D"/>
</svg>
