<svg width="62" height="50" viewBox="0 0 62 50" fill="none" xmlns="http://www.w3.org/2000/svg">
<g id="Frame 154">
<path id="&#226;&#128;&#156;" d="M24.938 14L28.564 16.94C25.428 18.998 22.586 22.918 22.292 26.054C22.39 26.054 23.076 25.956 23.566 25.956C26.31 25.956 28.27 28.014 28.27 30.954C28.27 33.796 26.016 36.148 23.076 36.148C19.842 36.148 17 33.502 17 28.7C17 22.722 20.43 17.234 24.938 14ZM40.618 14L44.244 16.94C41.108 18.998 38.364 22.918 37.972 26.054C38.07 26.054 38.756 25.956 39.246 25.956C41.99 25.956 44.048 28.014 44.048 30.954C44.048 33.796 41.696 36.148 38.756 36.148C35.522 36.148 32.68 33.502 32.68 28.7C32.68 22.722 36.11 17.234 40.618 14Z" fill="#1B355D"/>
</g>
</svg>
