<svg width="56" height="56" viewBox="0 0 56 56" fill="none" xmlns="http://www.w3.org/2000/svg">
<path fill-rule="evenodd" clip-rule="evenodd" d="M48.3532 49.0637H7.70541C7.34335 49.0637 7.0498 48.7702 7.0498 48.4081V44.3669C7.0498 44.0048 7.34335 43.7113 7.70541 43.7113H48.3532C48.7153 43.7113 49.0088 44.0048 49.0088 44.3669V48.4081C49.0088 48.7702 48.7153 49.0637 48.3532 49.0637ZM8.36102 47.7525H47.6976V45.0225H8.36102V47.7525Z" fill="#212121"/>
<path fill-rule="evenodd" clip-rule="evenodd" d="M48.3532 18.7423H7.70541C7.34335 18.7423 7.0498 18.4488 7.0498 18.0867V14.99C7.0498 14.7126 7.22429 14.4653 7.48574 14.3723L27.8096 7.14261C27.9517 7.09207 28.1069 7.09207 28.2491 7.14261L48.573 14.3723C48.8343 14.4653 49.0088 14.7126 49.0088 14.99V18.0867C49.0088 18.4488 48.7153 18.7423 48.3532 18.7423ZM8.36102 17.4311H47.6976V15.4527L28.0293 8.4561L8.36102 15.4527V17.4311Z" fill="#212121"/>
<path fill-rule="evenodd" clip-rule="evenodd" d="M17.9025 41.7585H12.7972C12.4351 41.7585 12.1416 41.4649 12.1416 41.1028V21.3509C12.1416 20.9888 12.4351 20.6953 12.7972 20.6953H17.9025C18.2646 20.6953 18.5582 20.9888 18.5582 21.3509V41.1028C18.5582 41.4649 18.2647 41.7585 17.9025 41.7585ZM13.4528 40.4472H17.2469V22.0065H13.4528V40.4472Z" fill="#131313"/>
<path fill-rule="evenodd" clip-rule="evenodd" d="M19.5765 22.0065H11.1234C10.7613 22.0065 10.4678 21.713 10.4678 21.3509V18.0867C10.4678 17.7247 10.7613 17.4311 11.1234 17.4311C11.4854 17.4311 11.779 17.7247 11.779 18.0867V20.6952H18.9209V18.0867C18.9209 17.7247 19.2145 17.4311 19.5765 17.4311C19.9386 17.4311 20.2321 17.7247 20.2321 18.0867V21.3508C20.2321 21.713 19.9386 22.0065 19.5765 22.0065Z" fill="#212121"/>
<path fill-rule="evenodd" clip-rule="evenodd" d="M19.5765 45.0225C19.2145 45.0225 18.9209 44.729 18.9209 44.3669V41.7585H11.779V44.3669C11.779 44.729 11.4854 45.0225 11.1234 45.0225C10.7613 45.0225 10.4678 44.729 10.4678 44.3669V41.1028C10.4678 40.7408 10.7613 40.4472 11.1234 40.4472H19.5765C19.9386 40.4472 20.2321 40.7408 20.2321 41.1028V44.3669C20.2321 44.729 19.9386 45.0225 19.5765 45.0225Z" fill="#212121"/>
<path fill-rule="evenodd" clip-rule="evenodd" d="M30.5822 41.7585H25.4769C25.1148 41.7585 24.8213 41.4649 24.8213 41.1028V21.3509C24.8213 20.9888 25.1148 20.6953 25.4769 20.6953H30.5822C30.9443 20.6953 31.2378 20.9888 31.2378 21.3509V41.1028C31.2378 41.4649 30.9444 41.7585 30.5822 41.7585ZM26.1325 40.4472H29.9266V22.0065H26.1325V40.4472Z" fill="#131313"/>
<path fill-rule="evenodd" clip-rule="evenodd" d="M32.2563 22.0065H23.8031C23.441 22.0065 23.1475 21.713 23.1475 21.3509V18.0867C23.1475 17.7247 23.441 17.4311 23.8031 17.4311C24.1651 17.4311 24.4587 17.7247 24.4587 18.0867V20.6952H31.6006V18.0867C31.6006 17.7247 31.8942 17.4311 32.2562 17.4311C32.6183 17.4311 32.9118 17.7247 32.9118 18.0867V21.3508C32.912 21.713 32.6184 22.0065 32.2563 22.0065Z" fill="#212121"/>
<path fill-rule="evenodd" clip-rule="evenodd" d="M32.2563 45.0225C31.8943 45.0225 31.6007 44.729 31.6007 44.3669V41.7585H24.4587V44.3669C24.4587 44.729 24.1651 45.0225 23.8031 45.0225C23.441 45.0225 23.1475 44.729 23.1475 44.3669V41.1028C23.1475 40.7408 23.441 40.4472 23.8031 40.4472H32.2563C32.6184 40.4472 32.9119 40.7408 32.9119 41.1028V44.3669C32.9119 44.729 32.6184 45.0225 32.2563 45.0225Z" fill="#212121"/>
<path fill-rule="evenodd" clip-rule="evenodd" d="M43.2619 41.7585H38.1566C37.7945 41.7585 37.501 41.4649 37.501 41.1028V21.3509C37.501 20.9888 37.7945 20.6953 38.1566 20.6953H43.2619C43.624 20.6953 43.9175 20.9888 43.9175 21.3509V41.1028C43.9175 41.4649 43.624 41.7585 43.2619 41.7585ZM38.8122 40.4472H42.6064V22.0065H38.8122V40.4472Z" fill="#131313"/>
<path fill-rule="evenodd" clip-rule="evenodd" d="M44.9359 22.0065H36.4828C36.1207 22.0065 35.8271 21.713 35.8271 21.3509V18.0867C35.8271 17.7247 36.1207 17.4311 36.4828 17.4311C36.8448 17.4311 37.1384 17.7247 37.1384 18.0867V20.6952H44.2803V18.0867C44.2803 17.7247 44.5738 17.4311 44.9359 17.4311C45.298 17.4311 45.5915 17.7247 45.5915 18.0867V21.3508C45.5915 21.713 45.2979 22.0065 44.9359 22.0065Z" fill="#212121"/>
<path fill-rule="evenodd" clip-rule="evenodd" d="M44.9359 45.0225C44.5738 45.0225 44.2803 44.729 44.2803 44.3669V41.7585H37.1384V44.3669C37.1384 44.729 36.8448 45.0225 36.4828 45.0225C36.1207 45.0225 35.8271 44.729 35.8271 44.3669V41.1028C35.8271 40.7408 36.1207 40.4472 36.4828 40.4472H44.9359C45.298 40.4472 45.5915 40.7408 45.5915 41.1028V44.3669C45.5915 44.729 45.2979 45.0225 44.9359 45.0225Z" fill="#212121"/>
<path fill-rule="evenodd" clip-rule="evenodd" d="M28.0296 15.7195C26.6386 15.7195 25.5068 14.5878 25.5068 13.1967C25.5068 11.8057 26.6386 10.674 28.0296 10.674C29.4206 10.674 30.5523 11.8057 30.5523 13.1967C30.5523 14.5878 29.4206 15.7195 28.0296 15.7195ZM28.0296 11.9852C27.3616 11.9852 26.8181 12.5287 26.8181 13.1967C26.8181 13.8648 27.3616 14.4083 28.0296 14.4083C28.6976 14.4083 29.2411 13.8648 29.2411 13.1967C29.2411 12.5286 28.6976 11.9852 28.0296 11.9852Z" fill="#131313"/>
</svg>
