<svg width="49" height="48" viewBox="0 0 49 48" fill="none" xmlns="http://www.w3.org/2000/svg">
<rect x="0.499512" width="48" height="48" rx="24" fill="white"/>
<path d="M24.4987 32.6718C24.4966 32.6718 24.4945 32.6718 24.4923 32.6718C23.7681 32.6668 17.366 32.6084 15.5521 32.1179C14.2845 31.7771 13.2838 30.7776 12.9421 29.5097C12.4675 27.7279 12.4977 24.2974 12.501 24.0235C12.4979 23.7509 12.4673 20.292 12.9407 18.4956C12.9412 18.4939 12.9416 18.4921 12.9421 18.4904C13.28 17.2371 14.3031 16.2065 15.549 15.8649C15.5521 15.864 15.5554 15.8632 15.5585 15.8623C17.3519 15.391 23.7666 15.3333 24.4923 15.3284H24.5053C25.2313 15.3333 31.6504 15.3917 33.4476 15.883C34.7119 16.2228 35.7119 17.2211 36.0545 18.4873C36.5468 20.285 36.5012 23.7514 36.4963 24.044C36.4998 24.3322 36.5285 27.732 36.0567 29.5227C36.0563 29.5246 36.0558 29.5262 36.0554 29.5279C35.7135 30.7957 34.713 31.7953 33.4439 32.1364C33.4423 32.1369 33.4405 32.1373 33.4388 32.1378C31.6456 32.609 25.2307 32.6667 24.5053 32.6718C24.5031 32.6718 24.5009 32.6718 24.4987 32.6718ZM14.753 18.9764C14.3363 20.5621 14.3757 23.9768 14.376 24.0112V24.036C14.3636 24.983 14.4073 27.7255 14.7532 29.0245C14.9209 29.6465 15.4144 30.1392 16.0403 30.3075C17.3786 30.6695 22.5929 30.7834 24.4987 30.7968C26.4094 30.7834 31.6314 30.6726 32.9598 30.3251C33.5836 30.1563 34.0755 29.6652 34.2443 29.0424C34.5905 27.7245 34.6339 24.9953 34.6213 24.0543C34.6213 24.0444 34.6213 24.0345 34.6215 24.0246C34.6387 23.0662 34.6048 20.2916 34.2459 18.9822C34.2456 18.981 34.2452 18.9797 34.245 18.9784C34.0766 18.3536 33.5829 17.8609 32.9571 17.6926C31.6317 17.3303 26.409 17.2167 24.4987 17.2034C22.5892 17.2167 17.3724 17.3273 16.0399 17.6745C15.426 17.8448 14.9213 18.3551 14.753 18.9764ZM22.1089 27.7968V20.2032L28.6715 24.0001L22.1089 27.7968Z" fill="#1B355D"/>
</svg>
