<svg width="25" height="24" viewBox="0 0 25 24" fill="none" xmlns="http://www.w3.org/2000/svg">
<mask id="mask0_1361_7422" style="mask-type:alpha" maskUnits="userSpaceOnUse" x="0" y="0" width="25" height="24">
<rect x="0.5" width="24" height="24" fill="#D9D9D9"/>
</mask>
<g mask="url(#mask0_1361_7422)">
<path d="M20.15 21C18.2556 21 16.3181 20.5361 14.3375 19.6083C12.357 18.6806 10.5222 17.3722 8.83333 15.6833C7.13333 13.9944 5.81944 12.1611 4.89168 10.1833C3.96389 8.20556 3.5 6.26112 3.5 4.35V3H9.05L10.025 7.825L7.125 10.7667C7.55833 11.4833 8.01388 12.1528 8.49165 12.775C8.96943 13.3972 9.47222 13.9694 10 14.4917C10.5611 15.0528 11.1653 15.582 11.8125 16.0792C12.4597 16.5764 13.1556 17.0333 13.9 17.45L16.8167 14.4667L21.5 15.4584V21H20.15ZM6.325 9.2L8.225 7.28333L7.7 4.66665H5.175C5.20277 5.33887 5.30832 6.04582 5.49165 6.7875C5.67498 7.52917 5.95277 8.33333 6.325 9.2ZM15.4583 18.2333C16.1361 18.5389 16.8542 18.7861 17.6125 18.975C18.3708 19.1639 19.1111 19.2778 19.8334 19.3167V16.8L17.3334 16.2917L15.4583 18.2333Z" fill="#E0E0E0"/>
</g>
</svg>
