<svg width="24" height="25" viewBox="0 0 24 25" fill="none" xmlns="http://www.w3.org/2000/svg">
<g id="call">
<mask id="mask0_1274_218" style="mask-type:alpha" maskUnits="userSpaceOnUse" x="0" y="0" width="24" height="25">
<rect id="Bounding box" y="0.5" width="24" height="24" fill="#D9D9D9"/>
</mask>
<g mask="url(#mask0_1274_218)">
<path id="call_2" d="M19.65 21.5C17.7556 21.5 15.8181 21.0361 13.8375 20.1083C11.857 19.1806 10.0222 17.8722 8.33333 16.1833C6.63333 14.4944 5.31944 12.6611 4.39168 10.6833C3.46389 8.70556 3 6.76112 3 4.85V3.5H8.55L9.525 8.325L6.625 11.2667C7.05833 11.9833 7.51388 12.6528 7.99165 13.275C8.46943 13.8972 8.97222 14.4694 9.5 14.9917C10.0611 15.5528 10.6653 16.082 11.3125 16.5792C11.9597 17.0764 12.6556 17.5333 13.4 17.95L16.3167 14.9667L21 15.9584V21.5H19.65ZM5.825 9.7L7.725 7.78333L7.2 5.16665H4.675C4.70277 5.83887 4.80832 6.54582 4.99165 7.2875C5.17498 8.02917 5.45277 8.83333 5.825 9.7ZM14.9583 18.7333C15.6361 19.0389 16.3542 19.2861 17.1125 19.475C17.8708 19.6639 18.6111 19.7778 19.3334 19.8167V17.3L16.8334 16.7917L14.9583 18.7333Z" fill="#D6C180"/>
</g>
</g>
</svg>
