<svg width="49" height="48" viewBox="0 0 49 48" fill="none" xmlns="http://www.w3.org/2000/svg">
<rect x="0.500488" width="47.9991" height="47.9999" rx="23.9995" fill="white"/>
<path d="M24.7367 35.9999C24.6572 35.9999 24.5778 35.9999 24.4977 35.9996C22.6165 36.0041 20.8783 35.9564 19.1879 35.8534C17.6381 35.7591 16.2234 35.2236 15.0966 34.3047C14.0093 33.4181 13.2668 32.2194 12.8898 30.7421C12.5616 29.4559 12.5443 28.1934 12.5276 26.9723C12.5155 26.0961 12.5031 25.0579 12.5005 24.0021C12.5031 22.9419 12.5155 21.9037 12.5276 21.0276C12.5443 19.8066 12.5616 18.5441 12.8898 17.2578C13.2668 15.7805 14.0093 14.5817 15.0966 13.6951C16.2234 12.7763 17.6381 12.2407 19.188 12.1464C20.8785 12.0437 22.6171 11.9957 24.5023 12.0003C26.3841 11.9963 28.1218 12.0437 29.8122 12.1464C31.362 12.2407 32.7767 12.7763 33.9035 13.6951C34.991 14.5817 35.7333 15.7805 36.1103 17.2578C36.4384 18.5439 36.4558 19.8066 36.4725 21.0276C36.4846 21.9037 36.4972 22.9419 36.4996 23.9977V24.0021C36.4972 25.0579 36.4846 26.0961 36.4725 26.9723C36.4558 28.1932 36.4386 29.4557 36.1103 30.7421C35.7333 32.2194 34.991 33.4181 33.9035 34.3047C32.7767 35.2236 31.362 35.7591 29.8122 35.8534C28.1934 35.952 26.5304 35.9999 24.7367 35.9999ZM24.4977 34.1246C26.3484 34.129 28.0476 34.0823 29.6983 33.9819C30.8702 33.9107 31.8862 33.5304 32.7186 32.8516C33.488 32.2241 34.0179 31.3584 34.2935 30.2784C34.5667 29.2078 34.5825 28.0583 34.5977 26.9466C34.6096 26.0763 34.622 25.0455 34.6246 23.9999C34.622 22.9542 34.6096 21.9235 34.5977 21.0532C34.5825 19.9416 34.5667 18.792 34.2935 17.7212C34.0179 16.6413 33.488 15.7756 32.7186 15.1481C31.8862 14.4695 30.8702 14.0892 29.6983 14.0179C28.0476 13.9174 26.3484 13.8711 24.5021 13.8751C22.6519 13.8707 20.9525 13.9174 19.3018 14.0179C18.1299 14.0892 17.1138 14.4695 16.2814 15.1481C15.512 15.7756 14.9821 16.6413 14.7065 17.7212C14.4333 18.792 14.4176 19.9414 14.4024 21.0532C14.3905 21.9242 14.3781 22.9557 14.3755 24.0021C14.3781 25.044 14.3905 26.0756 14.4024 26.9466C14.4176 28.0583 14.4333 29.2078 14.7065 30.2784C14.9821 31.3584 15.512 32.2241 16.2814 32.8516C17.1138 33.5302 18.1299 33.9105 19.3018 33.9817C20.9525 34.0823 22.6522 34.1291 24.4977 34.1246ZM24.4531 29.8593C21.2223 29.8593 18.5937 27.2308 18.5937 23.9999C18.5937 20.769 21.2223 18.1406 24.4531 18.1406C27.684 18.1406 30.3124 20.769 30.3124 23.9999C30.3124 27.2308 27.684 29.8593 24.4531 29.8593ZM24.4531 20.0156C22.2562 20.0156 20.4687 21.803 20.4687 23.9999C20.4687 26.1968 22.2562 27.9843 24.4531 27.9843C26.6501 27.9843 28.4374 26.1968 28.4374 23.9999C28.4374 21.803 26.6501 20.0156 24.4531 20.0156ZM30.9687 16.2656C30.1921 16.2656 29.5624 16.8951 29.5624 17.6718C29.5624 18.4485 30.1921 19.0781 30.9687 19.0781C31.7454 19.0781 32.3749 18.4485 32.3749 17.6718C32.3749 16.8951 31.7454 16.2656 30.9687 16.2656Z" fill="#1B355D"/>
</svg>
