<svg width="25" height="25" viewBox="0 0 25 25" fill="none" xmlns="http://www.w3.org/2000/svg">
<mask id="mask0_769_30321" style="mask-type:alpha" maskUnits="userSpaceOnUse" x="0" y="0" width="25" height="25">
<rect x="0.333984" y="0.666504" width="24" height="24" fill="#D9D9D9"/>
</mask>
<g mask="url(#mask0_769_30321)">
<path d="M12.334 12.6665C12.884 12.6665 13.3548 12.4707 13.7465 12.079C14.1382 11.6873 14.334 11.2165 14.334 10.6665C14.334 10.1165 14.1382 9.64567 13.7465 9.254C13.3548 8.86234 12.884 8.6665 12.334 8.6665C11.784 8.6665 11.3132 8.86234 10.9215 9.254C10.5298 9.64567 10.334 10.1165 10.334 10.6665C10.334 11.2165 10.5298 11.6873 10.9215 12.079C11.3132 12.4707 11.784 12.6665 12.334 12.6665ZM12.334 20.0165C14.3673 18.1498 15.8757 16.454 16.859 14.929C17.8423 13.404 18.334 12.0498 18.334 10.8665C18.334 9.04984 17.7548 7.56234 16.5965 6.404C15.4382 5.24567 14.0173 4.6665 12.334 4.6665C10.6507 4.6665 9.22982 5.24567 8.07148 6.404C6.91315 7.56234 6.33398 9.04984 6.33398 10.8665C6.33398 12.0498 6.82565 13.404 7.80898 14.929C8.79232 16.454 10.3007 18.1498 12.334 20.0165ZM12.334 22.6665C9.65065 20.3832 7.64648 18.2623 6.32148 16.304C4.99648 14.3457 4.33398 12.5332 4.33398 10.8665C4.33398 8.3665 5.13815 6.37484 6.74648 4.8915C8.35482 3.40817 10.2173 2.6665 12.334 2.6665C14.4507 2.6665 16.3132 3.40817 17.9215 4.8915C19.5298 6.37484 20.334 8.3665 20.334 10.8665C20.334 12.5332 19.6715 14.3457 18.3465 16.304C17.0215 18.2623 15.0173 20.3832 12.334 22.6665Z" fill="#1B355D"/>
</g>
</svg>
